<svg id="Layer_1" enable-background="new 0 0 128 128" height="512" viewBox="0 0 128 128" width="512" xmlns="http://www.w3.org/2000/svg"><g><g><g><path d="m58.321 70.126c.811-.605 1.602-1.244 2.343-1.959 3.359-3.242 5.621-7.289 6.624-11.72.304.089.612.147.922.147 2.45 0 4.369-2.528 4.369-5.756 0-.786-.115-1.529-.323-2.205v-9.94c0-15.432-12.554-27.985-27.985-27.985s-27.984 12.553-27.984 27.984v9.942c-.207.676-.322 1.418-.322 2.203 0 3.228 1.919 5.756 4.369 5.756.349 0 .694-.069 1.032-.178 1.361 5.528 4.621 10.35 9.013 13.667-12.822 3.434-22.294 15.148-22.294 29.038v19.173c0 1.654 1.346 3 3 3h66.373c1.654 0 3-1.346 3-3v-19.173c0-13.833-9.394-25.507-22.137-28.994z" fill="#e6e7e8"/></g><g><path d="m114.036 47.75h-31.768c-5.447 0-9.879 4.432-9.879 9.879v14.96c0 5.447 4.432 9.879 9.879 9.879h2.198v6.524c0 .377.212.722.548.892.143.072.298.108.452.108.208 0 .416-.065.591-.193l9.965-7.297c1.797-.017 11.459-.029 18.014-.034 5.447 0 9.879-4.432 9.879-9.879v-14.96c0-5.447-4.432-9.879-9.879-9.879z" fill="#e6e7e8"/></g></g><g><g><g><path d="m51.857 66.578c-3.388 2.026-7.35 3.194-11.585 3.194s-8.197-1.167-11.585-3.194c-13.439 2.556-23.601 14.359-23.601 28.542v19.173c0 1.105.895 2 2 2h66.373c1.105 0 2-.895 2-2v-19.173c-.001-14.183-10.163-25.986-23.602-28.542z" fill="#6dc9f7"/><path d="m29.547 67.069c-.291-.157-.577-.322-.86-.491-13.439 2.556-23.601 14.359-23.601 28.542v19.173c0 1.104.895 2 2 2h3c-1.105 0-2-.896-2-2v-19.173c0-13.42 9.098-24.709 21.461-28.051z" fill="#fff"/></g><path d="m40.272 69.772c-3.725 0-7.236-.906-10.334-2.502-.102.587-.166 1.188-.166 1.805 0 5.799 4.701 10.5 10.5 10.5s10.5-4.701 10.5-10.5c0-.617-.064-1.217-.166-1.805-3.098 1.595-6.609 2.502-10.334 2.502z" fill="#fff"/><g><g><g><path d="m64.21 42.081c-.473 0-.922.14-1.33.388v4.709c0 1.289-.113 2.552-.32 3.782.49.392 1.047.634 1.65.634 1.861 0 3.369-2.13 3.369-4.757s-1.508-4.756-3.369-4.756z" fill="#fff"/></g><g><path d="m17.664 46.636v-4.167c-.408-.248-.857-.388-1.33-.388-1.861 0-3.369 2.13-3.369 4.757s1.508 4.757 3.369 4.757c.633 0 1.219-.262 1.725-.69-.257-1.39-.395-2.816-.395-4.269z" fill="#fff"/></g></g><path d="m57.31 25.14c-2.037-2.063-5.083-2.661-7.833-1.744-2.374.792-5.62 1.28-9.205 1.28s-6.831-.488-9.205-1.28c-2.75-.917-5.796-.319-7.833 1.744-3.444 3.489-5.57 8.28-5.57 13.57v8.453c0 12.486 10.122 22.608 22.608 22.608 12.486 0 22.608-10.122 22.608-22.608v-8.453c0-5.289-2.126-10.081-5.57-13.57z" fill="#fff"/></g></g><g><path d="m110.035 44.75h-31.768c-4.883 0-8.879 3.995-8.879 8.879v14.96c0 4.883 3.995 8.879 8.879 8.879h3.198v7.525l10.221-7.483c.059-.027 18.35-.041 18.35-.041 4.883 0 8.879-3.995 8.879-8.879v-14.96c-.001-4.885-3.996-8.88-8.88-8.88z" fill="#ffd7e5"/><g fill="#3a2c60"><path d="m54.316 66.127c4.442-3.298 7.685-8.119 8.962-13.683.307.091.619.15.932.15 2.45 0 4.369-2.528 4.369-5.756 0-.785-.115-1.527-.322-2.203v-9.942c0-15.432-12.554-27.985-27.985-27.985s-27.985 12.553-27.985 27.984v9.94c-.207.676-.323 1.419-.323 2.205 0 3.228 1.919 5.756 4.369 5.756.316 0 .627-.06.933-.15 1.277 5.564 4.519 10.384 8.962 13.683-12.745 3.485-22.143 15.159-22.143 28.994v19.173c0 1.654 1.346 3 3 3h66.373c1.654 0 3-1.346 3-3v-2.89c0-.553-.448-1-1-1s-1 .447-1 1v2.89c0 .552-.449 1-1 1h-14.186v-20.023c0-.553-.448-1-1-1s-1 .447-1 1v20.023h-34v-20.023c0-.553-.448-1-1-1s-1 .447-1 1v20.023h-14.187c-.551 0-1-.448-1-1v-19.173c0-13.55 9.657-24.878 22.448-27.487.104.06.207.121.312.179-.046.415-.073.835-.073 1.262 0 6.341 5.159 11.5 11.5 11.5s11.5-5.159 11.5-11.5c0-.427-.027-.847-.073-1.262.105-.058.208-.12.312-.179 12.791 2.609 22.448 13.937 22.448 27.487v4.45c0 .553.448 1 1 1s1-.447 1-1v-4.45c0-13.835-9.398-25.509-22.143-28.993zm9.33-15.673c.151-1.076.234-2.173.234-3.29v-4.034c.11-.026.219-.049.33-.049 1.284 0 2.369 1.721 2.369 3.757 0 2.332-1.437 4.258-2.933 3.616zm-49.682-3.616c0-2.036 1.085-3.757 2.369-3.757.11 0 .22.023.33.049v4.033c0 1.117.083 2.215.234 3.291-1.468.611-2.933-1.282-2.933-3.616zm4.7.325v-8.453c0-4.847 1.876-9.417 5.282-12.868 1.205-1.22 2.838-1.867 4.556-1.867.744 0 1.503.121 2.25.37 2.574.859 5.956 1.332 9.521 1.332s6.947-.473 9.521-1.332c2.473-.823 5.079-.249 6.804 1.497 3.407 3.451 5.283 8.021 5.283 12.868v8.453c0 11.915-9.693 21.608-21.608 21.608s-21.609-9.693-21.609-21.608zm31.108 21.911c0 5.238-4.262 9.5-9.5 9.5s-9.5-4.262-9.5-9.5c0-.101.009-.2.013-.3 2.906 1.281 6.113 1.997 9.487 1.997s6.581-.716 9.487-1.997c.004.101.013.199.013.3z"/><path d="m75.459 102.278c-.552 0-1 .447-1 1v4.375c0 .553.448 1 1 1s1-.447 1-1v-4.375c0-.552-.448-1-1-1z"/><path d="m30.298 41.753c-1.249 0-2.261 1.012-2.261 2.261s1.012 2.261 2.261 2.261 2.261-1.012 2.261-2.261-1.013-2.261-2.261-2.261z"/><path d="m50.246 41.753c-1.249 0-2.261 1.012-2.261 2.261s1.012 2.261 2.261 2.261 2.261-1.012 2.261-2.261-1.012-2.261-2.261-2.261z"/><path d="m40.272 55.076c1.969 0 3.571-1.603 3.571-3.571v-1.507c0-.553-.448-1-1-1s-1 .447-1 1v1.507c0 .866-.705 1.571-1.571 1.571s-1.571-.705-1.571-1.571v-1.507c0-.553-.448-1-1-1s-1 .447-1 1v1.507c0 1.969 1.602 3.571 3.571 3.571z"/><path d="m48.526 39.635 4.427.771c.058.01.116.015.173.015.477 0 .899-.343.984-.828.095-.544-.27-1.063-.813-1.157l-4.427-.771c-.545-.091-1.062.271-1.157.813-.095.544.269 1.062.813 1.157z"/><path d="m31.674 37.664-4.427.771c-.544.095-.908.613-.813 1.157.085.485.507.828.984.828.057 0 .115-.005.173-.015l4.427-.771c.544-.095.908-.613.813-1.157-.095-.542-.609-.904-1.157-.813z"/><path d="m46.078 58.274c.333-.439.247-1.067-.193-1.4-.441-.334-1.069-.247-1.401.193-.015.019-1.485 1.918-4.212 1.918-2.748 0-4.137-1.817-4.202-1.904-.324-.443-.946-.544-1.393-.221-.448.322-.549.947-.226 1.396.081.111 2.013 2.729 5.82 2.729 3.711 0 5.724-2.599 5.807-2.711z"/><path d="m110.036 43.75h-31.769c-5.447 0-9.878 4.432-9.878 9.879v14.96c0 5.447 4.432 9.879 9.878 9.879h2.198v6.524c0 .377.212.722.548.892.143.072.298.108.452.108.208 0 .416-.065.591-.193l9.965-7.297c1.797-.017 11.459-.029 18.014-.034 5.447 0 9.878-4.432 9.878-9.879v-14.96c.001-5.447-4.431-9.879-9.877-9.879zm7.878 24.839c0 4.345-3.534 7.879-7.879 7.879-18.512.014-18.512.014-18.771.135-.059.027-.115.061-.168.1l-8.63 6.318v-5.553c0-.553-.448-1-1-1h-3.198c-4.344 0-7.878-3.534-7.878-7.879v-14.96c0-4.345 3.534-7.879 7.878-7.879h31.769c4.344 0 7.878 3.534 7.878 7.879v14.96z"/></g></g><g><g><path d="m80.224 55.532 1.193 2.416c.089.18.26.304.458.333l2.667.387c.499.073.699.686.337 1.038l-1.93 1.881c-.143.14-.209.341-.175.539l.456 2.656c.085.497-.437.877-.883.642l-2.385-1.254c-.177-.093-.389-.093-.567 0l-2.385 1.254c-.447.235-.969-.144-.883-.642l.456-2.656c.034-.197-.032-.399-.175-.539l-1.93-1.881c-.361-.352-.162-.966.337-1.038l2.667-.387c.198-.029.37-.153.458-.333l1.193-2.416c.223-.453.868-.453 1.091 0z" fill="#fa759e"/></g><g><path d="m94.697 55.532 1.193 2.416c.089.18.26.304.458.333l2.667.387c.499.073.699.686.337 1.038l-1.93 1.881c-.143.14-.209.341-.175.539l.456 2.656c.085.497-.437.877-.883.642l-2.385-1.254c-.177-.093-.389-.093-.567 0l-2.385 1.254c-.447.235-.969-.144-.883-.642l.456-2.656c.034-.197-.032-.399-.175-.539l-1.93-1.881c-.361-.352-.162-.966.337-1.038l2.667-.387c.198-.029.37-.153.458-.333l1.193-2.416c.223-.453.868-.453 1.091 0z" fill="#fa759e"/></g><g><path d="m109.17 55.532 1.193 2.416c.089.18.26.304.458.333l2.667.387c.499.073.699.686.337 1.038l-1.93 1.881c-.143.14-.209.341-.175.539l.456 2.656c.085.497-.437.877-.883.642l-2.385-1.254c-.177-.093-.389-.093-.567 0l-2.385 1.254c-.447.235-.969-.144-.883-.642l.456-2.656c.034-.197-.032-.399-.175-.539l-1.93-1.881c-.361-.352-.162-.966.337-1.038l2.667-.387c.198-.029.37-.153.458-.333l1.193-2.416c.223-.453.868-.453 1.091 0z" fill="#fa759e"/></g></g></g></g></svg>